<?xml version="1.0" encoding="UTF-8" standalone="no"?>
<svg width="348px" height="348px" viewBox="0 0 348 348" version="1.1" xmlns="http://www.w3.org/2000/svg" xmlns:xlink="http://www.w3.org/1999/xlink" xmlns:sketch="http://www.bohemiancoding.com/sketch/ns">
    <!-- Generator: Sketch 3.0.4 (8053) - http://www.bohemiancoding.com/sketch -->
    <title>Robot 2</title>
    <desc>Created with Sketch.</desc>
    <defs></defs>
    <g id="Page-1" stroke="none" stroke-width="1" fill="none" fill-rule="evenodd" sketch:type="MSPage">
        <g id="robot" sketch:type="MSLayerGroup" transform="translate(1.000000, 1.000000)">
            <path d="M26.5017421,0.5 C12.1413764,0.5 0.5,12.1392712 0.5,26.5017421 L0.5,319.498258 C0.5,333.858624 12.1392712,345.5 26.5017421,345.5 L319.498258,345.5 C333.858624,345.5 345.5,333.860729 345.5,319.498258 L345.5,26.5017421 C345.5,12.1413764 333.860729,0.5 319.498258,0.5 L26.5017421,0.5 Z M33,33 L33,313 L313,313 L313,33 L33,33 Z" id="Bumpers" fill="#4990E2" sketch:type="MSShapeGroup"></path>
            <g id="Wheels" transform="translate(39.000000, 40.000000)" fill="#979797" sketch:type="MSShapeGroup">
                <rect id="Rectangle-4" x="0" y="0" width="15" height="40" rx="2"></rect>
                <rect id="Rectangle-4" x="0" y="227" width="15" height="40" rx="2"></rect>
                <rect id="Rectangle-4" x="0" y="113" width="15" height="40" rx="2"></rect>
                <rect id="Rectangle-7" x="253" y="0" width="15" height="40" rx="2"></rect>
                <rect id="Rectangle-5" x="253" y="227" width="15" height="40" rx="2"></rect>
                <rect id="Rectangle-6" x="253" y="113" width="15" height="40" rx="2"></rect>
            </g>
            <path d="M59,303 L59,43 L59,43 L288,43 L288,303 L59,303 L59,303 Z M58.5,313 L54,313 L54,33 L58.5,33 L288.5,33 L293,33 L293,313 L288.5,313 L58.5,313 L58.5,313 Z M34,33 L34,313 L39,313 L39,33 L34,33 Z M308,33 L308,313 L313,313 L313,33 L308,33 Z M114,43 L114,303 L124,303 L124,43 L114,43 Z M223,43 L223,303 L233,303 L233,43 L223,43 Z" id="Frame" fill="#D8D8D8" sketch:type="MSShapeGroup"></path>
            <g id="Gearbox" transform="translate(59.000000, 145.000000)" sketch:type="MSShapeGroup">
                <rect id="Rectangle-16" fill="#D8D8D8" x="48" y="1" width="3" height="25"></rect>
                <rect id="Rectangle-17" fill="#D8D8D8" x="48" y="28" width="3" height="25"></rect>
                <rect id="Rectangle-14" fill="#4A4A4A" x="13" y="1" width="35" height="25"></rect>
                <rect id="Rectangle-14" fill="#4A4A4A" x="13" y="28" width="35" height="25"></rect>
                <rect id="Rectangle-13" stroke="#979797" fill="#4A4A4A" x="0" y="0" width="14" height="55" rx="2"></rect>
            </g>
            <g id="Gearbox-2" transform="translate(262.500000, 172.500000) rotate(-180.000000) translate(-262.500000, -172.500000) translate(237.000000, 145.000000)" sketch:type="MSShapeGroup">
                <rect id="Rectangle-16" fill="#D8D8D8" x="48" y="1" width="3" height="25"></rect>
                <rect id="Rectangle-17" fill="#D8D8D8" x="48" y="28" width="3" height="25"></rect>
                <rect id="Rectangle-14" fill="#4A4A4A" x="13" y="1" width="35" height="25"></rect>
                <rect id="Rectangle-14" fill="#4A4A4A" x="13" y="28" width="35" height="25"></rect>
                <rect id="Rectangle-13" stroke="#979797" fill="#4A4A4A" x="0" y="0" width="14" height="55" rx="2"></rect>
            </g>
            <rect id="Battery" fill="#4A4A4A" sketch:type="MSShapeGroup" x="138" y="273" width="70" height="30"></rect>
        </g>
    </g>
</svg>